<svg width="40" height="40" viewBox="0 0 40 40" fill="none" xmlns="http://www.w3.org/2000/svg">
<rect width="40" height="40" rx="20" fill="#B3B3B3"/>
<path d="M30.6134 21.916H21.916V30.6134C21.916 31.5702 21.1332 32.3529 20.1765 32.3529C19.2197 32.3529 18.437 31.5702 18.437 30.6134V21.916H9.7395C8.78277 21.916 8 21.1332 8 20.1765C8 19.2197 8.78277 18.437 9.7395 18.437H18.437V9.7395C18.437 8.78277 19.2197 8 20.1765 8C21.1332 8 21.916 8.78277 21.916 9.7395V18.437H30.6134C31.5702 18.437 32.3529 19.2197 32.3529 20.1765C32.3529 21.1332 31.5702 21.916 30.6134 21.916Z" fill="white"/>
</svg>
