<svg width="20" height="20" viewBox="0 0 20 20" fill="none" xmlns="http://www.w3.org/2000/svg">
<path fill-rule="evenodd" clip-rule="evenodd" d="M10 0C7.2375 0 5 2.2375 5 5C5 7.7625 7.2375 10 10 10C12.7625 10 15 7.7625 15 5C15 2.2375 12.7625 0 10 0ZM12.6255 5.00003C12.6255 3.55003 11.4505 2.37503 10.0005 2.37503C8.55049 2.37503 7.37549 3.55003 7.37549 5.00003C7.37549 6.45003 8.55049 7.62503 10.0005 7.62503C11.4505 7.62503 12.6255 6.45003 12.6255 5.00003ZM17.6255 16.25C17.6255 15.45 13.713 13.625 10.0005 13.625C6.28799 13.625 2.37549 15.45 2.37549 16.25V17.625H17.6255V16.25ZM0 16.25C0 12.925 6.6625 11.25 10 11.25C13.3375 11.25 20 12.925 20 16.25V18.75C20 19.4375 19.4375 20 18.75 20H1.25C0.5625 20 0 19.4375 0 18.75V16.25Z" fill="#0A0A0A"/>
</svg>
