<svg width="20" height="20" viewBox="0 0 20 20" fill="none" xmlns="http://www.w3.org/2000/svg">
<path fill-rule="evenodd" clip-rule="evenodd" d="M17.5023 10C17.5023 10.34 17.4723 10.66 17.4323 10.98L19.5423 12.63C19.7323 12.78 19.7823 13.05 19.6623 13.27L17.6623 16.73C17.5423 16.95 17.2823 17.04 17.0523 16.95L14.5623 15.95C14.0423 16.34 13.4823 16.68 12.8723 16.93L12.4923 19.58C12.4623 19.82 12.2523 20 12.0023 20H8.00228C7.75228 20 7.54228 19.82 7.51228 19.58L7.13228 16.93C6.52228 16.68 5.96228 16.35 5.44228 15.95L2.95228 16.95C2.73228 17.03 2.46228 16.95 2.34228 16.73L0.342281 13.27C0.222281 13.05 0.272281 12.78 0.462281 12.63L2.57228 10.98C2.53228 10.66 2.50228 10.33 2.50228 10C2.50228 9.67 2.53228 9.34 2.57228 9.02L0.462281 7.37C0.272281 7.22 0.212281 6.95 0.342281 6.73L2.34228 3.27C2.46228 3.05 2.72228 2.96 2.95228 3.05L5.44228 4.05C5.96228 3.66 6.52228 3.32 7.13228 3.07L7.51228 0.42C7.54228 0.18 7.75228 0 8.00228 0H12.0023C12.2523 0 12.4623 0.18 12.4923 0.42L12.8723 3.07C13.4823 3.32 14.0423 3.65 14.5623 4.05L17.0523 3.05C17.2723 2.97 17.5423 3.05 17.6623 3.27L19.6623 6.73C19.7823 6.95 19.7323 7.22 19.5423 7.37L17.4323 9.02C17.4723 9.34 17.5023 9.66 17.5023 10ZM6.50212 10C6.50212 11.93 8.07212 13.5 10.0021 13.5C11.9321 13.5 13.5021 11.93 13.5021 10C13.5021 8.07 11.9321 6.5 10.0021 6.5C8.07212 6.5 6.50212 8.07 6.50212 10Z" fill="#0A0A0A"/>
</svg>
