<svg width="27" height="22" viewBox="0 0 27 22" fill="none" xmlns="http://www.w3.org/2000/svg">
<path fill-rule="evenodd" clip-rule="evenodd" d="M24.125 0.5H3.125C1.68125 0.5 0.513125 1.68125 0.513125 3.125L0.5 18.875C0.5 20.3188 1.68125 21.5 3.125 21.5H24.125C25.5688 21.5 26.75 20.3188 26.75 18.875V3.125C26.75 1.68125 25.5688 0.5 24.125 0.5ZM24.125 17.5625C24.125 18.2844 23.5344 18.875 22.8125 18.875H4.4375C3.71563 18.875 3.125 18.2844 3.125 17.5625V5.75L12.2338 11.4462C13.0869 11.9844 14.1631 11.9844 15.0163 11.4462L24.125 5.75V17.5625ZM3.125 3.125L13.625 9.6875L24.125 3.125H3.125Z" fill="black" fill-opacity="0.6"/>
</svg>
