<svg width="25" height="24" viewBox="0 0 25 24" fill="none" xmlns="http://www.w3.org/2000/svg">
<path d="M19.7217 15.2681L17.1817 14.9781C16.5717 14.9081 15.9717 15.1181 15.5417 15.5481L13.7017 17.3881C10.8717 15.9481 8.55174 13.6381 7.11174 10.7981L8.96174 8.94807C9.39174 8.51807 9.60174 7.91807 9.53174 7.30807L9.24174 4.78807C9.12174 3.77807 8.27174 3.01807 7.25174 3.01807H5.52174C4.39174 3.01807 3.45174 3.95807 3.52174 5.08807C4.05174 13.6281 10.8817 20.4481 19.4117 20.9781C20.5417 21.0481 21.4817 20.1081 21.4817 18.9781V17.2481C21.4917 16.2381 20.7317 15.3881 19.7217 15.2681Z" fill="black" fill-opacity="0.6"/>
</svg>
