<svg width="16" height="16" viewBox="0 0 16 16" fill="none" xmlns="http://www.w3.org/2000/svg">
<path fill-rule="evenodd" clip-rule="evenodd" d="M7.99998 14.4C11.5346 14.4 14.4 11.5346 14.4 8C14.4 4.46538 11.5346 1.6 7.99998 1.6C4.46535 1.6 1.59998 4.46538 1.59998 8C1.59998 11.5346 4.46535 14.4 7.99998 14.4ZM5.59998 7.2C6.0418 7.2 6.39998 6.84183 6.39998 6.4C6.39998 5.95817 6.0418 5.6 5.59998 5.6C5.15815 5.6 4.79998 5.95817 4.79998 6.4C4.79998 6.84183 5.15815 7.2 5.59998 7.2ZM11.2 6.4C11.2 6.84183 10.8418 7.2 10.4 7.2C9.95815 7.2 9.59998 6.84183 9.59998 6.4C9.59998 5.95817 9.95815 5.6 10.4 5.6C10.8418 5.6 11.2 5.95817 11.2 6.4ZM10.8284 10.8284C11.1408 10.5159 11.1408 10.0094 10.8284 9.69698C10.516 9.38456 10.0095 9.38456 9.69703 9.69698C8.75977 10.6342 7.24018 10.6342 6.30292 9.69698C5.9905 9.38456 5.48397 9.38456 5.17155 9.69698C4.85913 10.0094 4.85913 10.5159 5.17155 10.8284C6.73365 12.3904 9.26631 12.3904 10.8284 10.8284Z" fill="white"/>
</svg>
